HIERARCHY
ROOT ROOT
{
	OFFSET 0.000000 56.020000 -5.659234
	CHANNELS 6 Xposition Yposition Zposition Xrotation Yrotation Zrotation 
	JOINT C_spine0001_bind_JNT
	{
		OFFSET 0.000000 1.618999 0.000000
		CHANNELS 3 Xrotation Yrotation Zrotation
		JOINT C_spine0002_bind_JNT
		{
			OFFSET 0.000000 4.942001 0.000001
			CHANNELS 3 Xrotation Yrotation Zrotation
			JOINT C_spine0003_bind_JNT
			{
				OFFSET 0.000000 4.942001 -0.000000
				CHANNELS 3 Xrotation Yrotation Zrotation
				JOINT C_neck0001_bind_JNT
				{
					OFFSET 0.000000 17.026009 -0.000000
					CHANNELS 3 Xrotation Yrotation Zrotation
					JOINT C_neck0002_bind_JNT
					{
						OFFSET 0.000000 3.249985 0.000000
						CHANNELS 3 Xrotation Yrotation Zrotation
						JOINT C_head_bind_JNT
						{
							OFFSET 0.000000 5.278008 0.000000
							CHANNELS 3 Xrotation Yrotation Zrotation
							End Site
							{
								OFFSET 0.000000 0.000000 0.000000
							}
						}
					}
				}
				JOINT L_clavicle_bind_JNT
				{
					OFFSET 4.590000 12.067001 0.834000
					CHANNELS 3 Xrotation Yrotation Zrotation
					JOINT L_armUpper0001_bind_JNT
					{
						OFFSET 7.812635 0.512001 -3.452945
						CHANNELS 3 Xrotation Yrotation Zrotation
						JOINT L_armLower0001_bind_JNT
						{
							OFFSET 15.265892 -6.552116 -0.058157
							CHANNELS 3 Xrotation Yrotation Zrotation
							JOINT L_hand0001_bind_JNT
							{
								OFFSET 14.747667 -6.369995 5.049225
								CHANNELS 3 Xrotation Yrotation Zrotation
								End Site
								{
									OFFSET 0.000000 0.000000 0.000000
								}
							}
						}
					}
				}
				JOINT R_clavicle_bind_JNT
				{
					OFFSET -4.590000 12.067001 0.834000
					CHANNELS 3 Xrotation Yrotation Zrotation
					JOINT R_armUpper0001_bind_JNT
					{
						OFFSET -7.812635 0.512001 -3.452945
						CHANNELS 3 Xrotation Yrotation Zrotation
						JOINT R_armLower0001_bind_JNT
						{
							OFFSET -15.265890 -6.552124 -0.058160
							CHANNELS 3 Xrotation Yrotation Zrotation
							JOINT R_hand0001_bind_JNT
							{
								OFFSET -14.746784 -6.369629 5.048937
								CHANNELS 3 Xrotation Yrotation Zrotation
								End Site
								{
									OFFSET 0.000000 0.000000 0.000000
								}
							}
						}
					}
				}
			}
		}
	}
	JOINT C_pelvis0001_bind_JNT
	{
		OFFSET -0.000000 0.000000 0.000000
		CHANNELS 3 Xrotation Yrotation Zrotation
		JOINT L_legUpper0001_bind_JNT
		{
			OFFSET 6.599999 -6.027000 0.539000
			CHANNELS 3 Xrotation Yrotation Zrotation
			JOINT L_legLower0001_bind_JNT
			{
				OFFSET -0.140713 -19.187443 0.040261
				CHANNELS 3 Xrotation Yrotation Zrotation
				JOINT L_foot0001_bind_JNT
				{
					OFFSET -0.132215 -18.028637 -1.138370
					CHANNELS 3 Xrotation Yrotation Zrotation
					JOINT L_foot0002_bind_JNT
					{
						OFFSET 0.007014 -4.693133 9.886524
						CHANNELS 3 Xrotation Yrotation Zrotation
						End Site
						{
							OFFSET 0.000000 0.000000 0.000000
						}
					}
				}
			}
		}
		JOINT R_legUpper0001_bind_JNT
		{
			OFFSET -6.599999 -6.027000 0.539000
			CHANNELS 3 Xrotation Yrotation Zrotation
			JOINT R_legLower0001_bind_JNT
			{
				OFFSET 0.140710 -19.187164 0.040550
				CHANNELS 3 Xrotation Yrotation Zrotation
				JOINT R_foot0001_bind_JNT
				{
					OFFSET 0.132215 -18.028633 -1.138362
					CHANNELS 3 Xrotation Yrotation Zrotation
					JOINT R_foot0002_bind_JNT
					{
						OFFSET -0.007014 -4.693128 9.886505
						CHANNELS 3 Xrotation Yrotation Zrotation
						End Site
						{
							OFFSET 0.000000 0.000000 0.000000
						}
					}
				}
			}
		}
	}
}
MOTION
Frames: 6
Frame Time: 0.033333
0.000000 50.731407 0.000000 0.044325 15.814051 -0.083512 3.716214 -15.530213 5.946395 -3.163688 -0.831108 1.695260 4.879641 -0.006941 3.209157 19.564306 0.019252 0.710214 0.495314 0.229716 -0.249558 -2.361762 -1.219780 0.942932 13.076756 4.150521 19.729637 -17.227524 9.694321 -82.299881 -1.018134 21.437071 0.760920 1.089290 -15.219802 -19.769127 11.798380 -9.695540 -19.884558 -17.719355 -0.499775 75.505898 -11.045301 -22.057398 0.292226 0.134122 13.086242 25.782280 3.153222 -15.116249 3.557509 -29.871372 4.637861 14.952550 5.580591 2.211395 -6.235562 24.763132 -1.261380 -4.467051 -12.101380 -0.529374 -2.808845 -3.830224 -4.441615 -3.174939 17.447758 -1.013561 0.942724 -8.144711 1.294424 2.909261 -6.688251 1.101586 -1.822655
0.318395 50.629654 0.342912 0.025411 17.152906 -0.021797 4.716906 -16.516520 6.271135 -3.695258 -0.560254 1.993410 4.928642 -0.091041 3.268104 19.582308 0.097642 -0.057229 0.372397 -0.233623 -0.152902 -1.797127 0.432956 0.527494 12.720688 4.293221 20.116718 -16.076656 11.520552 -82.820984 -1.477589 20.527102 1.872008 2.327204 -15.583183 -20.580399 12.176983 -10.854782 -20.283083 -17.911510 0.249680 75.433670 -11.944708 -20.377504 0.898782 -0.274357 12.975608 25.099348 4.454293 -15.868995 3.964685 -31.289721 3.411986 14.825509 4.431295 3.099340 -6.062491 26.087568 -3.029598 -6.218596 -12.324610 -0.197649 -2.755980 -4.456022 -5.179750 -4.598214 17.233341 -0.297032 0.437380 -7.871405 1.105096 4.954064 -8.275351 1.005797 -2.045514
0.473908 50.523533 0.947602 0.025712 17.864302 -0.051279 4.983351 -17.248671 6.685348 -3.965306 -0.511282 2.142790 5.042387 0.039134 3.194405 19.765583 0.186380 0.192848 0.512936 -0.060807 -0.106643 -1.006201 -0.129887 0.274833 12.399512 4.435169 20.038420 -15.216402 11.951828 -82.243347 -1.712429 21.026012 1.944275 2.880650 -15.643038 -20.972620 12.233578 -10.674017 -19.869289 -17.297417 -0.157846 74.616615 -12.748034 -20.272533 0.846140 0.132117 12.433540 24.945595 4.384060 -16.945564 4.147288 -32.121044 3.597045 15.687886 3.061304 2.711069 -6.894907 26.187943 -2.719260 -6.541193 -11.495016 -0.446286 -2.987138 -4.070909 -5.282962 -4.954226 18.146641 -0.157366 0.716576 -8.920056 0.870957 4.776937 -8.260159 0.886776 -1.927997
0.644962 50.490181 1.351630 0.033362 17.900049 -0.050288 5.200748 -17.270311 6.937400 -3.682037 -0.360697 2.218323 4.866901 0.056167 3.154008 19.927198 0.126071 0.095770 0.608854 -0.134614 -0.029895 -0.933513 0.277721 0.186038 12.311325 4.340233 20.014912 -14.609454 12.031462 -81.998672 -2.120920 21.025578 2.083112 2.868950 -16.111799 -21.080423 12.067478 -10.424779 -19.692404 -16.993876 -0.668186 74.195015 -12.553702 -20.320953 0.595149 -0.280926 12.608808 24.792913 4.622842 -16.871555 4.604640 -32.197647 3.375508 15.701786 2.086468 2.433214 -7.370683 25.585968 -2.719110 -7.392223 -10.652291 -0.550002 -2.593905 -4.066173 -5.541494 -5.551648 18.176107 0.208160 0.692700 -8.808471 0.864102 5.158569 -8.710122 1.022007 -2.107393
0.849984 50.447090 1.700446 0.024017 18.359560 -0.041852 5.686886 -17.598913 7.219894 -3.790484 -0.387339 2.201788 4.874861 0.118146 3.278516 20.137371 0.202983 0.181626 0.467873 -0.097247 -0.063018 -0.506459 0.466758 0.044803 12.011932 4.286964 20.002823 -13.788016 12.416880 -81.547752 -2.660134 20.826906 2.090028 3.544838 -16.052048 -21.026020 11.760468 -10.403574 -19.620171 -16.610243 -0.846903 73.468475 -12.831656 -20.279596 0.510664 -0.220398 12.566599 24.964769 4.975919 -17.330061 4.861482 -32.754154 3.242988 15.679692 1.779594 2.731023 -7.667927 25.101685 -2.916272 -7.623840 -10.231871 -0.642468 -2.511627 -4.333995 -5.405382 -5.902627 18.590488 0.027769 0.464965 -8.847418 0.926469 5.596537 -9.180688 0.955068 -2.071820
0.970652 50.460125 1.987816 0.023766 18.641798 -0.032875 5.812567 -17.826130 7.515617 -3.734975 -0.387007 2.145748 4.729797 0.065948 3.325033 20.136057 0.334174 0.090909 0.633829 -0.134183 -0.054301 -0.468680 0.421753 0.002437 11.989883 4.201554 20.090816 -13.262766 12.553862 -81.547485 -2.837431 20.746355 2.110801 3.650952 -15.982807 -21.089592 11.730166 -10.405083 -19.691900 -16.523102 -0.758942 73.300278 -12.907370 -20.212631 0.350003 -0.171585 12.433878 24.980169 5.085001 -17.657940 5.043953 -32.818962 3.116402 15.632174 1.069529 2.784014 -7.737824 24.553341 -2.715891 -7.745905 -10.198313 -0.448550 -2.439784 -4.185435 -5.462765 -6.169680 18.624220 0.088360 0.498323 -9.175668 0.869496 5.532512 -9.118546 1.083711 -2.035518
